<svg class="snowsgivingIcon-3d0pr1" aria-hidden="true" role="img" width="24" height="24" viewBox="0 0 24 24"><path fill="#5865F2" d="M21.554 14.867L21.036 12.936L17.339 13.927L16.001 13.154V10.844L17.338 10.073L21.035 11.062L21.553 9.131L19.787 8.659L21.16 7.865L20.16 6.133L18.788 6.925L19.261 5.16L17.329 4.643L16.339 8.34L15.253 8.966L13.001 7.465V6.414L15.708 3.707L14.294 2.293L13.001 3.586V2H11.001V3.586L9.70802 2.293L8.29402 3.707L11.001 6.414V7.465L8.74802 8.967L7.66302 8.341L6.67302 4.643L4.74102 5.16L5.21502 6.927L3.84102 6.134L2.84102 7.867L4.21402 8.659L2.44802 9.132L2.96602 11.064L6.66302 10.073L8.00102 10.846V13.153L6.66202 13.926L2.96502 12.935L2.44702 14.867L4.21302 15.34L2.84002 16.133L3.84002 17.865L5.21302 17.073L4.74002 18.838L6.67202 19.356L7.66302 15.659L8.74602 15.032L11.001 16.535V17.586L8.29402 20.293L9.70802 21.706L11.001 20.414V22H13.001V20.414L14.294 21.706L15.708 20.293L13.001 17.586V16.535L15.254 15.033L16.339 15.659L17.329 19.356L19.261 18.839L18.788 17.073L20.161 17.867L21.161 16.134L19.787 15.341L21.554 14.867Z"></path></svg>